<svg xmlns="http://www.w3.org/2000/svg" version="1.1" xmlns:xlink="http://www.w3.org/1999/xlink" fill="none" width="432.61363636363603" height="96.81818181818198" viewBox="0 0 432.61363636363603 96.81818181818198"><path d="M211.708 0.00976562M215.458 77.5098L215.458 19.3105L231.257 19.3105L231.257 64.8105L254.777 64.8105L254.777 77.5098L215.458 77.5098ZM282.387 78.3105Q275.287 78.3105 270.228 75.5098Q265.167 72.6104 262.478 67.6104Q259.777 62.5098 259.777 55.8105Q259.777 49.1104 262.478 44.0098Q265.167 38.9102 270.228 36.1104Q275.287 33.3105 282.387 33.3105Q289.487 33.3105 294.547 36.1104Q299.607 38.9102 302.297 44.0098Q304.997 49.1104 304.997 55.8105Q304.997 62.5098 302.297 67.6104Q299.607 72.6104 294.547 75.5098Q289.487 78.3105 282.387 78.3105ZM282.497 66.71Q284.487 66.71 285.938 65.4102Q287.387 64.0098 288.188 61.5098Q288.978 59.1104 288.978 55.71Q288.978 52.21 288.188 49.8105Q287.387 47.3105 285.938 46.0098Q284.487 44.71 282.497 44.71Q280.397 44.71 278.897 46.0098Q277.387 47.3105 276.587 49.8105Q275.797 52.21 275.797 55.71Q275.797 59.1104 276.587 61.5098Q277.387 64.0098 278.897 65.4102Q280.397 66.71 282.497 66.71ZM332.387 78.3105Q325.287 78.3105 320.228 75.5098Q315.167 72.6104 312.478 67.6104Q309.777 62.5098 309.777 55.8105Q309.777 49.1104 312.478 44.0098Q315.167 38.9102 320.228 36.1104Q325.287 33.3105 332.387 33.3105Q339.487 33.3105 344.547 36.1104Q349.607 38.9102 352.297 44.0098Q354.997 49.1104 354.997 55.8105Q354.997 62.5098 352.297 67.6104Q349.607 72.6104 344.547 75.5098Q339.487 78.3105 332.387 78.3105ZM332.497 66.71Q334.487 66.71 335.938 65.4102Q337.387 64.0098 338.188 61.5098Q338.978 59.1104 338.978 55.71Q338.978 52.21 338.188 49.8105Q337.387 47.3105 335.938 46.0098Q334.487 44.71 332.497 44.71Q330.397 44.71 328.897 46.0098Q327.387 47.3105 326.587 49.8105Q325.797 52.21 325.797 55.71Q325.797 59.1104 326.587 61.5098Q327.387 64.0098 328.897 65.4102Q330.397 66.71 332.497 66.71ZM361.367 77.5098L361.367 33.9102L376.247 33.9102L376.247 42.1104L376.708 42.1104Q378.067 38.1104 381.367 35.71Q384.657 33.3105 389.208 33.3105Q393.807 33.3105 397.127 35.71Q400.458 38.1104 401.137 42.1104L401.587 42.1104Q402.697 38.1104 406.307 35.71Q409.917 33.3105 414.777 33.3105Q421.047 33.3105 424.958 37.3105Q428.867 41.4102 428.867 48.1104L428.867 77.5098L413.188 77.5098L413.188 52.0098Q413.188 49.21 411.737 47.5098Q410.287 45.9102 407.837 45.9102Q405.427 45.9102 404.017 47.5098Q402.617 49.21 402.617 52.0098L402.617 77.5098L387.617 77.5098L387.617 52.0098Q387.617 49.21 386.167 47.5098Q384.717 45.9102 382.277 45.9102Q380.657 45.9102 379.487 46.6104Q378.327 47.4102 377.688 48.71Q377.047 50.1104 377.047 52.0098L377.047 77.5098L361.367 77.5098Z" fill-opacity="1" fill="rgba(7,31,191,1)"></path><path d="M-0.00292969 0.00976562M58.0674 41.1104L42.0474 41.1104Q41.8774 39.1104 41.1475 37.5098Q40.4272 35.9102 39.1572 34.71Q37.8975 33.5098 36.1074 32.9102Q34.3174 32.3105 32.0474 32.3105Q28.0674 32.3105 25.3271 34.21Q22.5874 36.1104 21.1772 39.71Q19.7671 43.3105 19.7671 48.4102Q19.7671 53.71 21.2075 57.3105Q22.6372 60.9102 25.3672 62.71Q28.0972 64.5098 31.9272 64.5098Q34.1172 64.5098 35.8472 64.0098Q37.5874 63.4102 38.8574 62.4102Q40.1372 61.3105 40.9473 59.8105Q41.7573 58.3105 42.0474 56.5098L58.0674 56.6104Q57.7773 60.3105 55.9873 64.1104Q54.1973 67.9102 50.9175 71.1104Q47.6372 74.4102 42.8071 76.3105Q37.9775 78.3105 31.5874 78.3105Q23.5771 78.3105 17.2275 74.9102Q10.8774 71.4102 7.19727 64.71Q3.51709 58.1104 3.51709 48.4102Q3.51709 38.71 7.26709 32.0098Q11.0171 25.4102 17.3872 21.9102Q23.7471 18.5098 31.5874 18.5098Q37.0972 18.5098 41.7275 20.0098Q46.3574 21.5098 49.8574 24.4102Q53.3472 27.3105 55.4775 31.5098Q57.6074 35.71 58.0674 41.1104ZM86.4775 78.3105Q79.3774 78.3105 74.3174 75.5098Q69.2573 72.6104 66.5674 67.6104Q63.8672 62.5098 63.8672 55.8105Q63.8672 49.1104 66.5674 44.0098Q69.2573 38.9102 74.3174 36.1104Q79.3774 33.3105 86.4775 33.3105Q93.5771 33.3105 98.6372 36.1104Q103.697 38.9102 106.387 44.0098Q109.087 49.1104 109.087 55.8105Q109.087 62.5098 106.387 67.6104Q103.697 72.6104 98.6372 75.5098Q93.5771 78.3105 86.4775 78.3105ZM86.5874 66.71Q88.5771 66.71 90.0273 65.4102Q91.4775 64.0098 92.2773 61.5098Q93.0674 59.1104 93.0674 55.71Q93.0674 52.21 92.2773 49.8105Q91.4775 47.3105 90.0273 46.0098Q88.5771 44.71 86.5874 44.71Q84.4873 44.71 82.9873 46.0098Q81.4775 47.3105 80.6772 49.8105Q79.8872 52.21 79.8872 55.71Q79.8872 59.1104 80.6772 61.5098Q81.4775 64.0098 82.9873 65.4102Q84.4873 66.71 86.5874 66.71ZM131.247 78.1104Q126.587 78.1104 122.688 75.6104Q118.777 73.21 116.438 68.21Q114.087 63.21 114.087 55.71Q114.087 47.8105 116.547 42.8105Q119.007 37.9102 122.907 35.6104Q126.817 33.3105 131.137 33.3105Q134.377 33.3105 136.817 34.4102Q139.257 35.5098 140.907 37.4102Q142.557 39.21 143.407 41.5098L143.637 41.5098L143.637 19.3105L159.317 19.3105L159.317 77.5098L143.747 77.5098L143.747 70.3105L143.407 70.3105Q142.497 72.5098 140.807 74.3105Q139.117 76.0098 136.717 77.0098Q134.317 78.1104 131.247 78.1104ZM137.047 66.0098Q139.208 66.0098 140.757 64.71Q142.297 63.5098 143.137 61.21Q143.978 58.9102 143.978 55.71Q143.978 52.4102 143.137 50.1104Q142.297 47.8105 140.757 46.6104Q139.208 45.3105 137.047 45.3105Q134.887 45.3105 133.367 46.6104Q131.847 47.8105 131.037 50.1104Q130.228 52.4102 130.228 55.71Q130.228 58.9102 131.037 61.21Q131.847 63.5098 133.367 64.8105Q134.887 66.0098 137.047 66.0098ZM187.958 78.3105Q180.967 78.3105 175.927 75.6104Q170.877 72.9102 168.167 67.9102Q165.458 62.8105 165.458 55.8105Q165.458 49.0098 168.177 44.0098Q170.907 38.9102 175.877 36.1104Q180.847 33.3105 187.617 33.3105Q192.557 33.3105 196.557 34.8105Q200.567 36.4102 203.407 39.3105Q206.247 42.21 207.787 46.3105Q209.317 50.5098 209.317 55.71L209.317 59.3105L170.337 59.3105L170.337 50.71L194.887 50.71Q194.857 48.8105 193.938 47.4102Q193.007 45.9102 191.458 45.1104Q189.917 44.3105 187.958 44.3105Q186.047 44.3105 184.458 45.1104Q182.867 45.9102 181.917 47.4102Q180.967 48.8105 180.907 50.71L180.907 60.0098Q180.907 62.1104 181.787 63.71Q182.667 65.4102 184.317 66.3105Q185.967 67.3105 188.297 67.3105Q189.917 67.3105 191.267 66.8105Q192.617 66.4102 193.577 65.5098Q194.547 64.6104 194.997 63.4102L209.317 63.4102Q208.577 67.9102 205.827 71.3105Q203.067 74.6104 198.537 76.4102Q194.007 78.3105 187.958 78.3105Z" fill-opacity="1" fill="rgba(255,255,255,1)"></path></svg>